<svg t="1669477854311" class="icon" viewBox="0 0 1024 1024" version="1.1" xmlns="http://www.w3.org/2000/svg" p-id="2163" width="200" height="200"><path d="M512.682667 85.333333c235.349333 0 426.666667 191.317333 426.666666 426.666667s-191.317333 426.666667-426.666666 426.666667-426.666667-191.317333-426.666667-426.666667 191.488-426.666667 426.666667-426.666667m0-51.2c-263.850667 0-477.866667 214.016-477.866667 477.866667s214.016 477.866667 477.866667 477.866667 477.866667-214.016 477.866666-477.866667-213.845333-477.866667-477.866666-477.866667z" fill="#1296db" p-id="2164"></path><path d="M647.68 670.378667H377.856c-14.165333 0-25.6-11.434667-25.6-25.6s11.434667-25.6 25.6-25.6h269.824c14.165333 0 25.6 11.434667 25.6 25.6s-11.605333 25.6-25.6 25.6z" fill="#1296db" p-id="2165"></path><path d="M647.68 670.378667c-6.485333 0-13.141333-2.56-18.090667-7.509334l-71.850666-71.850666a25.429333 25.429333 0 0 1 0-36.181334 25.429333 25.429333 0 0 1 36.181333 0l71.850667 71.850667c10.069333 10.069333 10.069333 26.282667 0 36.181333-5.12 4.949333-11.605333 7.509333-18.090667 7.509334zM647.68 746.496H377.856c-14.165333 0-25.6-11.434667-25.6-25.6s11.434667-25.6 25.6-25.6h269.824c14.165333 0 25.6 11.434667 25.6 25.6s-11.605333 25.6-25.6 25.6z" fill="#1296db" p-id="2166"></path><path d="M449.706667 818.346667c-6.485333 0-13.141333-2.56-18.090667-7.509334l-71.850667-71.850666c-10.069333-10.069333-10.069333-26.282667 0-36.181334s26.282667-10.069333 36.181334 0l71.850666 71.850667c10.069333 10.069333 10.069333 26.282667 0 36.181333-4.949333 5.12-11.605333 7.509333-18.090666 7.509334z" fill="#1296db" p-id="2167"></path><path d="M512.682667 342.016c-6.485333 0-13.141333-2.56-18.090667-7.509333l-85.333333-85.333334c-10.069333-10.069333-10.069333-26.282667 0-36.181333s26.282667-10.069333 36.181333 0l85.333333 85.333333c10.069333 10.069333 10.069333 26.282667 0 36.181334-4.949333 5.12-11.434667 7.509333-18.090666 7.509333z" fill="#1296db" p-id="2168"></path><path d="M512.682667 342.016c-6.485333 0-13.141333-2.56-18.090667-7.509333a25.429333 25.429333 0 0 1 0-36.181334l85.333333-85.333333c10.069333-10.069333 26.282667-10.069333 36.181334 0s10.069333 26.282667 0 36.181333l-85.333334 85.333334c-4.949333 5.12-11.434667 7.509333-18.090666 7.509333z" fill="#1296db" p-id="2169"></path><path d="M512.682667 536.746667c-14.165333 0-25.6-11.434667-25.6-25.6V316.416c0-14.165333 11.434667-25.6 25.6-25.6s25.6 11.434667 25.6 25.6v194.730667c0 14.165333-11.434667 25.6-25.6 25.6z" fill="#1296db" p-id="2170"></path><path d="M600.917333 358.570667H424.448c-14.165333 0-25.6-11.434667-25.6-25.6s11.434667-25.6 25.6-25.6h176.469333c14.165333 0 25.6 11.434667 25.6 25.6s-11.434667 25.6-25.6 25.6zM600.917333 446.293333H424.448c-14.165333 0-25.6-11.434667-25.6-25.6s11.434667-25.6 25.6-25.6h176.469333c14.165333 0 25.6 11.434667 25.6 25.6s-11.434667 25.6-25.6 25.6z" fill="#1296db" p-id="2171"></path><path d="M259.072 504.149333m-206.336 0a206.336 206.336 0 1 0 412.672 0 206.336 206.336 0 1 0-412.672 0Z" fill="#1296db" opacity=".3" p-id="2172"></path></svg>