<svg t="1669474447167" class="icon" viewBox="0 0 1072 1024" version="1.1" xmlns="http://www.w3.org/2000/svg" p-id="1936" width="200" height="200"><path d="M1.092525 0h1024v1024H1.092525z" fill="#1296db" fill-opacity="0" p-id="1937"></path><path d="M65.092525 68.266667h423.111111a88.888889 88.888889 0 0 1 88.888889 88.888889V409.6H65.092525V68.266667z" fill="#1296db" fill-opacity=".6" p-id="1938"></path><path d="M65.092525 281.6h810.666667c47.111111 0 85.333333 38.222222 85.333333 85.333333v512c0 47.111111-38.222222 85.333333-85.333333 85.333334H150.425859a85.333333 85.333333 0 0 1-85.333334-85.333334V281.6z m661.333334 362.666667a192.222222 192.222222 0 0 0-192-192 192.222222 192.222222 0 0 0-192 192 192.222222 192.222222 0 0 0 192 192 192.133333 192.133333 0 0 0 170.755555-104.355556h-58.044444a142.666667 142.666667 0 0 1-112.711111 55.2 143.022222 143.022222 0 0 1-142.844445-142.844444 143.022222 143.022222 0 0 1 142.844445-142.844445 143.022222 143.022222 0 0 1 140.666666 117.911111H530.870303a24.888889 24.888889 0 0 0 0 49.777778h193.822222c1.066667-8.133333 1.688889-16.4 1.688889-24.844444z" fill="#1296db" p-id="1939"></path><path d="M137.625859 354.133333m-44.444445 0a44.444444 44.444444 0 1 0 88.888889 0 44.444444 44.444444 0 1 0-88.888889 0Z" fill="#1296db" p-id="1940"></path></svg>