<svg t="1669446665785" class="icon" viewBox="0 0 1024 1024" version="1.1" xmlns="http://www.w3.org/2000/svg" p-id="1934" width="200" height="200"><path d="M426.666667 802.773333V554.666667h42.666666v135.893333l113.28-127.36-213.333333-85.333333L597.333333 221.226667V469.333333h-42.666666v-135.893333l-113.28 127.36 213.333333 85.333333L426.666667 802.773333zM213.333333 170.666667a42.666667 42.666667 0 1 1-42.666666 42.666666 42.666667 42.666667 0 0 1 42.666666-42.666666m0-42.666667a85.333333 85.333333 0 1 0 85.333334 85.333333 85.333333 85.333333 0 0 0-85.333334-85.333333zM810.666667 170.666667a42.666667 42.666667 0 1 1-42.666667 42.666666 42.666667 42.666667 0 0 1 42.666667-42.666666m0-42.666667a85.333333 85.333333 0 1 0 85.333333 85.333333 85.333333 85.333333 0 0 0-85.333333-85.333333zM213.333333 768a42.666667 42.666667 0 1 1-42.666666 42.666667 42.666667 42.666667 0 0 1 42.666666-42.666667m0-42.666667a85.333333 85.333333 0 1 0 85.333334 85.333334 85.333333 85.333333 0 0 0-85.333334-85.333334zM810.666667 768a42.666667 42.666667 0 1 1-42.666667 42.666667 42.666667 42.666667 0 0 1 42.666667-42.666667m0-42.666667a85.333333 85.333333 0 1 0 85.333333 85.333334 85.333333 85.333333 0 0 0-85.333333-85.333334z" p-id="1935" fill="#1296db"></path><path d="M230.165333 260.352l30.165334-30.165333 106.666666 106.645333-30.186666 30.165333zM656.853333 336.938667l106.666667-106.666667 30.165333 30.186667-106.645333 106.666666zM230.186667 763.690667l106.666666-106.666667 30.165334 30.186667-106.645334 106.666666zM656.917333 687.018667l30.165334-30.165334 106.666666 106.645334-30.186666 30.165333z" p-id="1936" fill="#1296db"></path></svg>