<svg t="1669626441807" class="icon" viewBox="0 0 1024 1024" version="1.1" xmlns="http://www.w3.org/2000/svg" p-id="3479" width="200" height="200"><path d="M510.9 565.9L374.7 429.7c-5.4-5.4-5.4-14.1 0-19.4s14.1-5.4 19.4 0L510.9 527l115.7-115.7c5.4-5.4 14.1-5.4 19.4 0 5.4 5.4 5.4 14.1 0 19.4L510.9 565.9z" fill="#1296db" p-id="3480"></path><path d="M636.4 560.2h-252c-7.6 0-13.7-6.1-13.7-13.7s6.1-13.7 13.7-13.7h251.9c7.6 0 13.7 6.1 13.7 13.7 0.1 7.5-6.1 13.7-13.6 13.7zM636.4 656.1h-252c-7.6 0-13.7-6.1-13.7-13.7s6.1-13.7 13.7-13.7h251.9c7.6 0 13.7 6.1 13.7 13.7 0.1 7.5-6.1 13.7-13.6 13.7z" fill="#1296db" p-id="3481"></path><path d="M510.9 784.6c-7.6 0-13.7-6.1-13.7-13.7V546.5c0-7.6 6.1-13.7 13.7-13.7s13.7 6.1 13.7 13.7v224.4c0 7.5-6.1 13.7-13.7 13.7z" fill="#1296db" p-id="3482"></path><path d="M946 513.4c-3.1 0-6.1-1-8.7-3.1L521.4 169.2c-6.2-5.1-15.1-5.1-21.3 0L86.7 507.9c-5.9 4.8-14.5 3.9-19.3-1.9-4.8-5.9-3.9-14.5 1.9-19.3L482.7 148c16.3-13.3 39.8-13.3 56.1 0l415.9 341.1c5.9 4.8 6.7 13.5 1.9 19.3-2.7 3.3-6.6 5-10.6 5z" fill="#1296db" p-id="3483"></path><path d="M752.8 886.1H268c-41.3 0-74.9-33.6-74.9-74.9V391.7c0-7.6 6.1-13.7 13.7-13.7s13.7 6.1 13.7 13.7v419.4c0 26.2 21.3 47.5 47.5 47.5h484.8c26.2 0 47.5-21.3 47.5-47.5V391.7c0-7.6 6.1-13.7 13.7-13.7s13.7 6.1 13.7 13.7v419.4c0 41.3-33.6 75-74.9 75z" fill="#1296db" p-id="3484"></path></svg>